<?xml version="1.0" standalone="no"?>
<!DOCTYPE svg PUBLIC "-//W3C//DTD SVG 20010904//EN"
 "http://www.w3.org/TR/2001/REC-SVG-20010904/DTD/svg10.dtd">
<svg version="1.0" xmlns="http://www.w3.org/2000/svg"
 width="300.000000pt" height="300.000000pt" viewBox="0 0 300.000000 300.000000"
 preserveAspectRatio="xMidYMid meet">
<g transform="translate(0.000000,300.000000) scale(0.100000,-0.100000)"
fill="#000000" stroke="none">
<path d="M1882 2431 c-12 -10 -22 -25 -22 -33 0 -8 -18 -51 -39 -95 -22 -45
-37 -84 -34 -87 10 -9 36 32 73 118 39 87 63 104 100 71 22 -20 18 -40 -34
-145 -20 -41 -30 -66 -21 -55 9 11 30 49 47 85 28 59 31 63 44 45 7 -11 19
-26 26 -34 19 -23 13 -138 -11 -202 -34 -89 -76 -139 -309 -363 -121 -116
-332 -320 -469 -452 -229 -221 -257 -245 -334 -283 -104 -51 -213 -130 -239
-174 -58 -95 9 -206 117 -194 50 5 82 31 120 95 53 89 101 63 148 -80 49 -149
88 -208 135 -208 35 0 53 22 75 90 9 30 32 83 51 118 18 34 30 62 25 62 -16 0
-70 -73 -82 -110 -20 -64 -52 -120 -68 -120 -20 1 -46 20 -53 40 -8 23 20 107
60 184 24 46 63 96 121 154 99 98 81 91 -25 -11 -55 -53 -81 -87 -112 -150
-22 -45 -43 -91 -47 -102 -5 -18 -8 -17 -31 10 -22 27 -24 37 -21 106 6 124
32 166 216 350 86 85 309 303 496 483 325 314 343 329 425 368 113 54 194 110
225 156 70 103 -17 234 -134 202 -44 -11 -66 -33 -101 -98 -18 -35 -32 -48
-51 -50 -33 -4 -52 19 -74 88 -49 153 -103 240 -150 240 -12 0 -32 -8 -43 -19z
m510 -220 c40 -35 43 -83 10 -126 -25 -31 -163 -131 -196 -141 -47 -15 -127
-77 -229 -175 -58 -57 -190 -185 -293 -284 -514 -498 -558 -544 -600 -630 -21
-44 -39 -82 -41 -84 -2 -2 -11 3 -22 13 -10 9 -33 21 -50 26 -34 9 -49 -2
-144 -109 -34 -37 -81 -42 -121 -10 -21 16 -26 29 -26 63 0 27 7 50 17 62 38
42 171 143 216 164 26 12 47 25 47 29 0 3 12 12 27 18 16 7 87 70 158 139 558
542 612 594 626 594 7 0 10 3 6 6 -7 7 102 114 116 114 4 0 5 5 2 10 -3 6 1
10 10 10 9 0 13 5 10 10 -3 6 -2 10 4 10 5 0 25 21 42 48 18 26 36 49 41 50 4
2 8 12 8 22 0 10 4 21 9 24 4 3 11 19 14 36 5 21 12 30 27 30 11 0 20 -4 20
-8 0 -4 13 -16 30 -25 28 -17 32 -17 63 -2 20 9 43 33 57 58 53 93 103 111
162 58z"/>
<path d="M975 2316 c-140 -44 -230 -135 -278 -279 -19 -56 -21 -91 -25 -376
-2 -172 -1 -329 3 -348 11 -59 41 -63 129 -17 67 35 121 83 483 432 225 215
418 407 430 425 12 17 27 53 34 78 11 41 10 50 -4 73 l-17 26 -358 -1 c-259 0
-368 -4 -397 -13z m729 -22 c21 -8 21 -66 0 -110 -13 -27 -110 -124 -330 -332
-8 -7 -14 -18 -14 -23 0 -5 -4 -9 -9 -9 -5 0 -45 -35 -88 -77 -275 -271 -391
-376 -445 -403 -81 -42 -94 -40 -101 13 -3 23 -6 166 -7 317 0 290 4 326 49
421 22 47 102 139 121 139 5 0 10 3 10 8 0 7 97 47 135 55 32 7 662 8 679 1z"/>
<path d="M1220 2250 c-144 -4 -227 -11 -250 -20 -89 -34 -150 -95 -191 -188
-21 -49 -29 -114 -34 -302 -2 -74 -5 -151 -7 -170 -3 -28 2 -39 23 -57 46 -39
119 -28 142 19 13 27 13 37 1 78 -21 70 -14 343 9 388 25 46 34 40 27 -17 -10
-82 17 -142 82 -181 117 -69 273 33 254 167 -3 25 -11 52 -17 59 -6 8 -8 14
-5 14 4 0 -5 12 -19 27 -14 15 -25 33 -25 38 0 7 30 11 76 12 60 1 84 -3 111
-19 68 -41 143 -3 143 71 -1 52 -41 94 -87 89 -10 -1 -115 -5 -233 -8z m263
-21 c67 -31 46 -129 -28 -129 -20 0 -39 8 -51 21 -18 20 -27 20 -200 17 l-181
-3 -49 -30 c-36 -23 -56 -44 -76 -85 -26 -53 -28 -62 -29 -221 -1 -107 2 -173
10 -187 16 -31 13 -60 -9 -82 -44 -44 -117 -7 -106 53 3 18 8 111 10 207 3 96
9 190 15 208 27 88 96 167 180 206 41 19 71 22 261 27 118 3 218 6 222 7 4 1
18 -3 31 -9z m-321 -145 c61 -14 109 -103 93 -173 -15 -69 -100 -127 -167
-115 -126 23 -172 174 -80 257 25 23 91 47 112 42 8 -2 27 -7 42 -11z"/>
<path d="M2323 1933 c-28 -11 -10 -20 45 -22 58 -2 81 -14 86 -46 1 -10 -34
-54 -91 -111 -85 -87 -123 -134 -107 -134 15 0 225 206 230 226 9 34 -4 63
-36 79 -28 14 -101 19 -127 8z"/>
<path d="M1545 1763 c-88 -86 -146 -147 -130 -135 30 20 304 292 295 292 -3
-1 -77 -71 -165 -157z"/>
<path d="M2291 1613 c-57 -31 -126 -92 -378 -334 -169 -163 -363 -353 -430
-422 -112 -115 -122 -129 -133 -179 -14 -63 -4 -94 33 -103 13 -4 176 -5 363
-3 327 3 341 4 396 26 126 51 218 151 258 279 18 60 20 92 20 403 0 339 0 339
-22 354 -30 21 -27 22 -107 -21z m90 -65 c8 -406 -5 -688 -33 -688 -4 0 -8 -9
-8 -20 0 -50 -99 -153 -186 -194 -70 -33 -93 -35 -443 -36 -348 -1 -337 -4
-326 76 7 48 12 53 309 349 166 165 335 329 375 365 41 36 90 82 111 102 20
21 57 47 83 58 25 11 49 25 52 30 3 6 19 10 36 10 28 0 29 -1 30 -52z"/>
<path d="M2231 1429 c-35 -21 -53 -57 -47 -92 3 -12 5 -22 6 -22 9 0 14 -107
11 -225 l-2 -85 -21 40 c-40 77 -95 109 -173 103 -153 -13 -218 -184 -113
-299 12 -14 31 -28 41 -32 9 -3 17 -11 17 -17 0 -6 -41 -10 -110 -10 -100 0
-115 3 -161 26 -49 26 -52 26 -84 11 -37 -18 -59 -46 -69 -89 -5 -21 0 -35 24
-62 38 -43 67 -50 122 -31 31 11 88 15 209 15 147 0 190 5 249 28 8 3 17 6 20
6 3 1 21 12 40 26 70 49 124 124 141 197 8 38 17 221 21 452 0 26 -23 52 -63
68 -22 9 -32 8 -58 -8z m75 -23 c18 -13 19 -26 16 -223 -2 -114 -6 -224 -9
-243 -15 -93 -82 -181 -169 -225 -59 -30 -59 -30 -264 -33 -113 -2 -209 -7
-214 -13 -16 -15 -62 -10 -84 9 -12 9 -24 29 -28 44 -5 22 0 33 24 58 17 16
39 30 49 30 25 0 63 -27 73 -54 7 -15 9 -17 9 -4 1 15 21 17 184 20 200 3 214
7 275 69 50 51 62 108 62 293 -1 126 -4 165 -15 180 -21 28 -18 53 10 81 27
28 52 31 81 11z m-215 -308 c43 -24 79 -85 79 -135 0 -38 -35 -90 -80 -121
-66 -45 -164 -16 -202 59 -39 75 -11 165 62 201 47 24 94 23 141 -4z"/>
<path d="M1835 1458 c-83 -85 -89 -93 -26 -33 144 137 152 145 144 145 -5 0
-58 -51 -118 -112z"/>
<path d="M1904 1448 c-22 -18 -64 -60 -94 -93 -45 -49 -38 -43 43 29 53 49 97
91 97 93 0 7 -10 1 -46 -29z"/>
<path d="M1880 1353 c-50 -51 -58 -63 -25 -33 53 46 71 64 94 93 29 37 2 14
-69 -60z"/>
<path d="M718 1175 c-97 -94 -118 -120 -118 -143 0 -51 30 -67 122 -64 44 1
88 7 97 12 19 11 21 11 -89 15 -56 3 -77 8 -87 21 -17 23 -9 34 101 146 53 53
96 104 96 112 0 9 -1 16 -2 16 -2 0 -56 -52 -120 -115z"/>
</g>
</svg>


