<?xml version="1.0" encoding="UTF-8"?>
<svg version="1.1" xmlns="http://www.w3.org/2000/svg" width="645" height="685">
<path d="M0 0 C-0.50789063 0.29390625 -1.01578125 0.5878125 -1.5390625 0.890625 C-11.61082839 7.45424772 -14.70161231 19.48328498 -18.625 30.3125 C-25.95101859 49.86169884 -35.24406304 71.63816097 -51 86 C-51.66 86 -52.32 86 -53 86 C-53.19851563 86.59683594 -53.39703125 87.19367188 -53.6015625 87.80859375 C-56.13152997 94.30732699 -59.57069869 99.35142343 -64 104.68359375 C-64.60590973 105.41520721 -65.21181946 106.14682068 -65.83609009 106.90060425 C-73.03603726 115.43612265 -80.91195833 123.29228532 -88.85205078 131.13330078 C-91.40025874 133.64994588 -93.93726351 136.17748155 -96.47265625 138.70703125 C-98.11395621 140.33917255 -99.75586134 141.97070557 -101.3984375 143.6015625 C-102.14443207 144.34330719 -102.89042664 145.08505188 -103.6590271 145.84927368 C-107.7274615 149.86303976 -111.89166189 153.70294075 -116.21743774 157.43734741 C-118.53540303 159.46935187 -120.71263066 161.61646055 -122.875 163.8125 C-124.13570313 165.08480469 -124.13570313 165.08480469 -125.421875 166.3828125 C-126.69804688 167.67832031 -126.69804688 167.67832031 -128 169 C-133.17171976 174.25007916 -138.3503921 179.37071772 -143.9453125 184.16796875 C-148.1498619 187.91689207 -152.04831984 191.9884459 -156 196 C-161.20196234 201.28077996 -166.41104701 206.43609101 -172.0390625 211.26171875 C-175.69413917 214.50177675 -179.07891362 218.01659875 -182.5 221.5 C-187.1933195 226.27880802 -191.93991978 230.87155094 -197.01757812 235.24023438 C-200.50271827 238.33394006 -203.73807426 241.67436478 -207 245 C-210.82104341 248.89567317 -214.63039409 252.734929 -218.78125 256.28125 C-224.31524316 261.04783395 -229.37414784 266.3044986 -234.5 271.5 C-240.15226717 277.22906924 -245.78057137 282.89509328 -251.90429688 288.12695312 C-256.64236276 292.36162711 -261.03822375 296.97759787 -265.5 301.5 C-271.15226717 307.22906924 -276.78057137 312.89509328 -282.90429688 318.12695312 C-287.64236276 322.36162711 -292.03822375 326.97759787 -296.5 331.5 C-302.22322557 337.30099182 -307.92197839 343.04776461 -314.12304688 348.34570312 C-317.58121134 351.39363789 -320.77362143 354.71060623 -324 358 C-328.57997885 362.66943156 -333.23097153 367.14095888 -338.1875 371.41015625 C-340.57115643 373.50099282 -342.78864325 375.72887685 -345 378 C-347.78678681 380.86210537 -350.63269138 383.5693213 -353.66192627 386.16908264 C-357.97178123 389.92782748 -362.0463399 393.88481551 -366.09667969 397.91967773 C-366.8619548 398.67838165 -367.62722992 399.43708557 -368.41569519 400.21878052 C-370.9206331 402.70417426 -373.42168573 405.19342361 -375.921875 407.68359375 C-376.78111824 408.53876146 -377.64036148 409.39392918 -378.5256424 410.27501106 C-383.06546748 414.7940652 -387.60207241 419.31632471 -392.13623047 423.84106445 C-396.81056512 428.50429811 -401.49646569 433.15572998 -406.185009 437.80467129 C-409.79993876 441.39345051 -413.40594881 444.99109275 -417.00962067 448.59117317 C-418.73338828 450.31007814 -420.46052565 452.02561087 -422.19112396 453.73763847 C-424.61058564 456.13272315 -427.01707573 458.54016111 -429.42089844 460.95092773 C-430.13265732 461.64987656 -430.8444162 462.34882538 -431.57774353 463.06895447 C-436.64312404 468.1877363 -441.0927741 473.59460208 -441.4375 481.0625 C-440.66700318 487.9969714 -438.35143902 492.51972547 -433 497 C-427.09356726 501.0230794 -420.64328597 500.60235203 -413.75 500.75 C-412.49380859 500.78311279 -411.23761719 500.81622559 -409.94335938 500.8503418 C-367.2736235 501.78449562 -330.29525371 489.18720674 -298.87109375 459.6875 C-296.26304478 457.24622423 -293.61289154 454.86685508 -290.9375 452.5 C-286.3914402 448.42824821 -282.09651181 444.13888748 -277.8359375 439.7734375 C-275.69778472 437.68240655 -273.55465117 435.73180763 -271.2890625 433.7890625 C-266.27281761 429.44433001 -261.65473786 424.72526419 -257 420 C-255.29418982 418.26834421 -253.58589134 416.53913574 -251.875 414.8125 C-251.12992188 414.05582031 -250.38484375 413.29914063 -249.6171875 412.51953125 C-247.51082856 410.49176779 -245.37519808 408.57321677 -243.1640625 406.6640625 C-239.09550134 403.13128873 -235.28387107 399.39593093 -231.5 395.5625 C-230.82001953 394.87873291 -230.14003906 394.19496582 -229.43945312 393.49047852 C-227.29049074 391.32942945 -225.14482721 389.16515274 -223 387 C-220.16966163 384.14283983 -217.33587327 381.28916546 -214.5 378.4375 C-213.86642578 377.79562744 -213.23285156 377.15375488 -212.58007812 376.49243164 C-208.79533716 372.68733727 -204.88309764 369.10351093 -200.82128906 365.59643555 C-198.4901229 363.55307154 -196.29961381 361.39597458 -194.125 359.1875 C-193.28453125 358.33929688 -192.4440625 357.49109375 -191.578125 356.6171875 C-190.72734375 355.75351562 -189.8765625 354.88984375 -189 354 C-183.82828024 348.74992084 -178.6496079 343.62928228 -173.0546875 338.83203125 C-168.8501381 335.08310793 -164.95168016 331.0115541 -161 327 C-151.51461008 317.37089205 -151.51461008 317.37089205 -147.03125 313.53125 C-141.90817206 309.13857072 -137.23485253 304.30278441 -132.5 299.5 C-122.48243603 289.33871201 -122.48243603 289.33871201 -118.0625 285.5625 C-112.57182811 280.86017534 -107.57328221 275.64221713 -102.5 270.5 C-91.45920285 259.30918231 -91.45920285 259.30918231 -87.15625 255.65625 C-80.73724848 250.17211844 -74.93274572 243.99770279 -69 238 C-55.01124545 223.8580839 -55.01124545 223.8580839 -48.8515625 218.62890625 C-45.04783984 215.28259328 -41.55019722 211.61078079 -38 208 C-29.57710186 199.4333664 -29.57710186 199.4333664 -25.18359375 195.671875 C-20.09930057 191.29845182 -15.37588861 186.56192915 -10.63696289 181.82226562 C-9.07391266 180.26139673 -7.50302635 178.70872112 -5.93164062 177.15625 C25.13632791 146.26601374 41.99890702 110.41272085 42.234375 66.34765625 C42.23630859 65.6117627 42.23824219 64.87586914 42.24023438 64.11767578 C42.25001719 61.87105312 42.28119793 59.62531891 42.3125 57.37890625 C42.40013032 45.81186365 40.40689555 36.80663236 34.875 26.625 C34.48248047 25.89821045 34.08996094 25.1714209 33.68554688 24.42260742 C28.14634054 14.40101701 22.3287038 5.5672446 12 0 C14.44584143 -0.90138875 15.58765501 -1.16714558 18.04296875 -0.171875 C39.19702424 13.8537647 47.07410622 41.78594546 54.98828125 64.5390625 C55.24762955 65.28259476 55.50697784 66.02612701 55.77418518 66.79219055 C57.05638992 70.47232719 58.32701052 74.15567722 59.57543945 77.84741211 C65.20078243 95.47383958 65.20078243 95.47383958 77 109 C82.20423391 109.74346199 85.66667699 108.95034758 90 106 C95.09640326 100.93152224 97.93408401 94.31775797 101.02978516 87.94140625 C103.61834209 82.64250717 106.50659057 77.76083541 110 73 C110.86625 71.700625 110.86625 71.700625 111.75 70.375 C120.54487992 61.09151564 131.36617542 57.04022919 143.97900391 56.47827148 C156.86792029 56.26452282 167.89025888 59.05732923 177.81640625 67.77734375 C187.09977651 77.22678503 191.33492602 87.77422581 191.5 100.9375 C191.29020055 117.70921761 184.32827774 130.34884964 172.59716797 141.9465332 C160.43957941 153.4475509 146.18073286 162.25662101 132 171 C133.22517334 171.02505615 134.45034668 171.0501123 135.71264648 171.07592773 C140.29184035 171.17065126 144.87090527 171.27070896 149.44995117 171.37231445 C151.42550625 171.41541923 153.40109276 171.45710962 155.37670898 171.49731445 C158.22909991 171.55561465 161.08133621 171.61913145 163.93359375 171.68359375 C164.80584091 171.70030624 165.67808807 171.71701874 166.57676697 171.73423767 C177.80647205 172.00081841 185.4561542 172.6379277 193.828125 180.77734375 C198.45651714 185.91126416 200.29112071 190.3085797 200.375 197.3125 C200.40335938 198.38113281 200.43171875 199.44976562 200.4609375 200.55078125 C199.37621959 208.66778049 194.6237994 214.0026635 189.0625 219.6875 C188.4037085 220.37448975 187.74491699 221.06147949 187.06616211 221.76928711 C185.05549806 223.85762768 183.03032439 225.93078433 181 228 C180.39285156 228.62229492 179.78570313 229.24458984 179.16015625 229.88574219 C177.46705132 231.61749818 175.76737151 233.3423313 174.0625 235.0625 C173.5682251 235.56160889 173.0739502 236.06071777 172.56469727 236.57495117 C169.8999501 239.22728148 167.16069475 241.74380975 164.30639648 244.19140625 C160.02528089 247.92546987 156.00041546 251.87158892 152 255.90234375 C151.2788501 256.6249086 150.5577002 257.34747345 149.81469727 258.0919342 C147.54074585 260.37142604 145.27032046 262.6543924 143 264.9375 C141.44684765 266.49567506 139.89346433 268.05361993 138.33984375 269.61132812 C134.55722414 273.40489759 130.7774831 277.20131615 127 281 C127.59014893 280.7326001 128.18029785 280.4652002 128.78833008 280.18969727 C131.46236583 278.97910605 134.13741859 277.77077872 136.8125 276.5625 C137.74126953 276.14162109 138.67003906 275.72074219 139.62695312 275.28710938 C140.51962891 274.88427734 141.41230469 274.48144531 142.33203125 274.06640625 C143.56530151 273.5086853 143.56530151 273.5086853 144.82348633 272.93969727 C151.53278531 270.042996 159.47890512 269.8541958 166.55859375 271.6484375 C171.70424971 273.92458777 173.73662626 276.93004282 176 282 C176.81868609 284.746543 177.14138261 287.24119427 177.20333862 290.10171509 C177.22287975 290.91324665 177.24242088 291.72477821 177.26255417 292.56090164 C177.27887516 293.44524258 177.29519615 294.32958351 177.31201172 295.24072266 C177.34274717 296.65276537 177.34274717 296.65276537 177.37410355 298.0933342 C177.44010178 301.2418239 177.49803071 304.39039152 177.5546875 307.5390625 C177.57562344 308.63703785 177.59655937 309.7350132 177.61812973 310.86626053 C178.10005609 336.49589684 178.1535335 362.12437616 178.13037109 387.7578125 C178.12581664 392.8323687 178.12580845 397.90688912 178.13037109 402.98144531 C178.14585784 420.32142843 178.10556225 437.66032614 178 455 C177.99350937 456.20735306 177.98701874 457.41470612 177.98033142 458.65864563 C177.94039272 465.77906455 177.87763878 472.89866544 177.78292465 480.01857376 C177.75638942 482.18960539 177.73583622 484.36072101 177.72217178 486.5318718 C177.4595941 524.65304309 166.21712887 560.84580951 141 590 C140.32710937 590.80566406 139.65421875 591.61132812 138.9609375 592.44140625 C116.40167682 618.65116548 80.72464118 636.18045173 46.31124592 638.95444489 C45.26518271 639.02297417 44.21911951 639.09150345 43.14135742 639.16210938 C41.96577617 639.24153526 40.79019491 639.32096115 39.57898998 639.40279388 C20.76778707 640.52049919 1.89899249 640.36871699 -16.93811011 640.40037727 C-20.29322231 640.40630567 -23.64832186 640.41452505 -27.00342751 640.42338562 C-37.53737227 640.45055736 -48.07128707 640.46999406 -58.60526437 640.4777894 C-70.70586627 640.48680018 -82.80602193 640.52219759 -94.90648812 640.57979059 C-104.31774039 640.62301614 -113.72886666 640.64319642 -123.14021713 640.64587164 C-128.74001909 640.64796216 -134.3393963 640.65966609 -139.93909264 640.69551086 C-145.18693779 640.72847388 -150.43403778 640.73278379 -155.68194962 640.71523285 C-157.6019942 640.71369393 -159.52207917 640.72235388 -161.44202232 640.74214935 C-178.95160686 640.91207987 -178.95160686 640.91207987 -185.46899128 635.5437851 C-189.79615028 631.18051565 -191.86712905 628.32491698 -192.11352539 622.15917969 C-192.10828857 621.09086914 -192.10305176 620.02255859 -192.09765625 618.921875 C-192.09443359 617.76171875 -192.09121094 616.6015625 -192.08789062 615.40625 C-192.07951172 614.1996875 -192.07113281 612.993125 -192.0625 611.75 C-192.05798828 610.52796875 -192.05347656 609.3059375 -192.04882812 608.046875 C-192.03704815 605.03120054 -192.02059853 602.01562502 -192 599 C-204.95384566 615.61606373 -212.74735037 634.39530452 -219.03125 654.390625 C-219.37148193 655.46046631 -219.71171387 656.53030762 -220.06225586 657.63256836 C-220.71018917 659.69244909 -221.33983899 661.75820682 -221.94750977 663.83032227 C-224.49965817 671.98653724 -228.47820713 677.12506705 -235.0625 682.5 C-240.90157561 685.46587967 -249.01248676 685.14337297 -255.1796875 683.375 C-257.02421988 682.42298329 -258.43609372 681.36450823 -260 680 C-260.61875 679.49855469 -261.2375 678.99710938 -261.875 678.48046875 C-266.32701119 674.48931028 -269.53644893 669.94250188 -272.625 664.875 C-272.97288574 664.30869873 -273.32077148 663.74239746 -273.67919922 663.15893555 C-282.6544449 647.80477982 -287.76227855 630.10046922 -293.68383789 613.4284668 C-300.95840408 589.30166964 -300.95840408 589.30166964 -317 571 C-320.95480479 569.54721457 -322.53519795 569.85322041 -326.5625 571.125 C-332.86993988 574.56542175 -336.13751668 579.49505667 -339.6875 585.5 C-348.87547871 600.56779987 -358.31438752 614.45073831 -376.1875 619.25 C-389.68808026 621.86529565 -402.25872704 619.97491018 -413.78515625 612.52734375 C-422.98640704 606.18221314 -428.99750593 597.827647 -432 587 C-434.4156894 573.31697097 -432.75013647 559.6874548 -425 548 C-413.96759944 533.98342552 -399.51056085 523.70691181 -385.078125 513.47753906 C-382.16055695 511.40315915 -379.26724039 509.29704647 -376.375 507.1875 C-374.91671148 506.1249385 -373.45838664 505.06242683 -372 504 C-372.93936401 504.10393066 -372.93936401 504.10393066 -373.89770508 504.20996094 C-383.2379864 505.12231657 -392.55186317 505.22017315 -401.92797852 505.24023438 C-404.69251745 505.25001776 -407.45633515 505.28117294 -410.22070312 505.3125 C-412.005204 505.31902545 -413.78971009 505.32427772 -415.57421875 505.328125 C-416.38694748 505.3404718 -417.19967621 505.3528186 -418.03703308 505.36553955 C-426.85099295 505.33168973 -433.94371518 503.01356687 -440.3359375 496.86328125 C-445.61794378 490.94892211 -445.54628968 484.90832344 -445.3359375 477.23046875 C-444.89385938 472.97932213 -443.91992974 471.13358314 -441 468 C-440.36707031 467.2678125 -439.73414063 466.535625 -439.08203125 465.78125 C-434.46950058 460.49112633 -429.58337294 455.51042013 -424.5546875 450.6171875 C-422.48521835 448.49708914 -420.55626617 446.34706164 -418.62890625 444.1015625 C-415.32310268 440.29297175 -411.78729054 436.89217723 -408.0625 433.5 C-398.77698674 424.91294972 -389.86732403 415.95351643 -380.9375 407 C-379.83367477 405.89338013 -379.83367477 405.89338013 -378.70755005 404.7644043 C-374.4683274 400.51295193 -370.23273366 396.25791236 -366 392 C-366.53792679 392.22925171 -367.07585358 392.45850342 -367.63008118 392.69470215 C-370.1026229 393.74681225 -372.57668475 394.79530156 -375.05078125 395.84375 C-375.8967688 396.20436523 -376.74275635 396.56498047 -377.61437988 396.93652344 C-399.51831047 406.20377444 -399.51831047 406.20377444 -409.125 402.9375 C-413.64346921 399.89244466 -417.26026194 396.21921417 -419 391 C-419.15936745 387.92104357 -419.25998264 384.86256374 -419.31640625 381.78125 C-419.33727798 380.79064072 -419.35814972 379.80003143 -419.37965393 378.77940369 C-419.44781558 375.35302915 -419.50618236 371.92658911 -419.5625 368.5 C-419.59376984 366.68159103 -419.59376984 366.68159103 -419.62567139 364.82644653 C-420.37443996 319.51583898 -420.18718977 274.18770728 -420.01115417 228.87303925 C-420.00396292 227.02075034 -419.99699792 225.16846053 -419.99031067 223.31616974 C-419.95697847 214.1107265 -419.90426183 204.9063001 -419.79046631 195.70144653 C-419.76417934 193.45938223 -419.74355206 191.21724184 -419.72955322 188.97506714 C-419.59784262 170.2905868 -417.6685031 151.610278 -411.4375 133.875 C-411.10161865 132.89692383 -410.7657373 131.91884766 -410.41967773 130.91113281 C-402.90680883 109.9177501 -391.25281643 93.02481481 -376 77 C-375.40703125 76.35417969 -374.8140625 75.70835938 -374.203125 75.04296875 C-358.17974762 58.10736939 -336.71301259 48.38366838 -314.75 41.75 C-313.9660083 41.50354736 -313.1820166 41.25709473 -312.37426758 41.00317383 C-296.2970577 36.37287336 -279.07904096 36.69733021 -262.49926758 36.69360352 C-260.31242598 36.68596137 -258.12558703 36.67753044 -255.93875122 36.66838074 C-250.06142208 36.64665646 -244.18414483 36.63766926 -238.3067801 36.63255429 C-234.6285983 36.62889038 -230.95042973 36.62264059 -227.27225304 36.6155529 C-214.42490423 36.59115459 -201.57759539 36.57802328 -188.73022461 36.57446289 C-176.77326078 36.5708146 -164.81655154 36.5408023 -152.85966569 36.49905831 C-142.56454175 36.46438078 -132.26950255 36.44891505 -121.97432059 36.44821686 C-115.83737015 36.44742449 -109.70068106 36.43870009 -103.56379128 36.41021919 C-97.80398154 36.38407586 -92.04465102 36.38181271 -86.28480911 36.39787483 C-84.17408008 36.39969108 -82.06332361 36.39298281 -79.95265388 36.37705612 C-77.06791023 36.35661582 -74.18484772 36.36713477 -71.30012512 36.38526917 C-70.46870666 36.3720692 -69.63728819 36.35886923 -68.78067523 36.34526926 C-62.76761539 36.4314117 -58.63122608 38.13734282 -54 42 C-48.96623531 47.74005184 -47.79900395 53.47178441 -48 61 C-48.3590765 65.21863594 -48.91482037 69.40534494 -49.52734375 73.59375 C-50.06872227 76.92210692 -50.06872227 76.92210692 -50 80 C-35.20063348 62.28560674 -26.51669051 40.94447185 -18.08691406 19.69873047 C-11.81574407 3.98387279 -11.81574407 3.98387279 -5.0078125 -0.234375 C-3 -1 -3 -1 0 0 Z M-373 80 C-374.05960938 80.96486328 -374.05960938 80.96486328 -375.140625 81.94921875 C-394.2909319 99.89290063 -405.97374892 125.86157237 -412 151 C-412.24656845 152.00434082 -412.4931369 153.00868164 -412.74717712 154.04345703 C-415.5619083 167.03103404 -415.56225976 179.9473334 -415.6796875 193.19140625 C-415.71231711 195.7858623 -415.74569154 198.38030908 -415.77975464 200.9747467 C-416.14212204 230.09715264 -416.15257455 259.22342675 -416.12857127 288.3476187 C-416.12419354 294.26924248 -416.12735797 300.19084522 -416.1321975 306.11246771 C-416.13734738 312.69112224 -416.13672335 319.26976561 -416.13381577 325.8484211 C-416.13273212 328.57450875 -416.13392129 331.3005651 -416.13629532 334.0266552 C-416.14572099 347.83505993 -416.03801961 361.63310285 -415.61669922 375.43579102 C-415.58635653 376.59726874 -415.55601383 377.75874647 -415.52475166 378.95542049 C-415.512875 388.55997311 -415.512875 388.55997311 -411.30078125 396.77734375 C-410.64464844 397.16019531 -409.98851562 397.54304688 -409.3125 397.9375 C-408.66925781 398.33839844 -408.02601563 398.73929687 -407.36328125 399.15234375 C-397.96838541 402.52208325 -387.77671283 396.64901301 -379.30712891 392.76513672 C-363.68941751 385.38777677 -350.18000884 377.5563513 -337.63330078 365.55224609 C-335.90491597 363.90963464 -334.15647691 362.29085305 -332.40234375 360.67578125 C-325.41445112 354.23094666 -318.56608773 347.67828579 -311.91845703 340.8815918 C-309.12243116 338.04082611 -306.2737721 335.33982779 -303.24609375 332.74609375 C-298.06262626 328.26757287 -293.3065747 323.3755356 -288.5 318.5 C-278.48243603 308.33871201 -278.48243603 308.33871201 -274.0625 304.5625 C-268.57182811 299.86017534 -263.57328221 294.64221713 -258.5 289.5 C-252.81732564 283.7401104 -247.15883438 278.03948363 -241.00195312 272.77929688 C-236.81043699 269.05395912 -232.93375567 264.99335803 -229 261 C-223.78795543 255.70898505 -218.56873161 250.54211526 -212.9296875 245.70703125 C-209.45813684 242.63604413 -206.24417461 239.30753739 -203 236 C-198.48024688 231.39197045 -193.89067773 226.98982203 -189 222.77734375 C-185.51028722 219.67613415 -182.2678338 216.33165868 -179 213 C-175.1480498 209.07281639 -171.30302286 205.20736097 -167.125 201.625 C-162.15556273 197.34468391 -157.60016418 192.66986364 -153 188 C-143.51198033 178.36822245 -143.51198033 178.36822245 -139.21875 174.71875 C-132.96364929 169.35544075 -127.28897007 163.3549144 -121.5 157.5 C-108.28960381 144.13911924 -108.28960381 144.13911924 -102.17285156 138.93261719 C-97.25806762 134.5612206 -92.63999893 129.86547622 -87.98291016 125.22314453 C-86.14283373 123.39273999 -84.29232938 121.57333269 -82.44140625 119.75390625 C-65.38452623 102.85007771 -52.4663945 84.81731153 -51.375 60.0625 C-51.55271722 54.25911348 -52.63407568 50.44665839 -56.00390625 45.734375 C-61.42252794 41.02621839 -67.37577944 40.49459188 -74.24780273 40.32299805 C-75.22331054 40.28998187 -76.19881834 40.25696569 -77.20388699 40.22294903 C-94.1185958 39.73266096 -111.05401016 39.83495882 -127.97409368 39.83274293 C-131.06276769 39.83202483 -134.15143745 39.82987654 -137.2401104 39.82724571 C-148.06119945 39.81804347 -158.88227631 39.81390483 -169.70336914 39.81469727 C-179.71963428 39.81529843 -189.73584565 39.80472566 -199.75209719 39.7889536 C-208.41780376 39.77580425 -217.08349289 39.77051637 -225.74920934 39.77115268 C-230.89606377 39.77140526 -236.04287013 39.76868789 -241.18971443 39.75797462 C-291.12938238 39.66149728 -335.29558364 43.65773741 -373 80 Z M46 53 C45.98541748 53.77375977 45.97083496 54.54751953 45.95581055 55.34472656 C45.0676473 97.71293809 37.25947832 134.89032654 8 167 C7.10089753 168.00852215 6.2024401 169.0176198 5.3046875 170.02734375 C-1.14301249 177.20565144 -7.94098013 184.04115342 -14.75 190.875 C-16.08115845 192.21316772 -16.08115845 192.21316772 -17.43920898 193.57836914 C-21.19667527 197.32668889 -24.95355607 201.02186567 -28.984375 204.4765625 C-34.09960996 208.86896451 -38.76942361 213.70155308 -43.5 218.5 C-53.51800382 228.66173415 -53.51800382 228.66173415 -57.90625 232.40625 C-63.58553461 237.27010648 -68.75065552 242.68260846 -74 248 C-85.7127738 259.86460605 -85.7127738 259.86460605 -92.046875 265.26953125 C-96.05101044 268.81719525 -99.74904527 272.68883733 -103.5 276.5 C-108.50920469 281.58960926 -113.54022781 286.53004601 -118.95898438 291.18164062 C-122.98496894 294.76842688 -126.71921498 298.65852822 -130.5 302.5 C-139.45626862 311.60002895 -139.45626862 311.60002895 -143.78125 315.28125 C-149.85619711 320.4961348 -155.37626631 326.30950633 -161 332 C-173.69117536 344.84183374 -173.69117536 344.84183374 -179.92578125 350.1484375 C-184.8334237 354.52927088 -189.37954444 359.31964965 -194 364 C-199.81407415 369.88944178 -205.59036757 375.73723514 -211.890625 381.11328125 C-216.80673828 385.51047146 -221.36744729 390.30739568 -226 395 C-237.56993718 406.71991784 -237.56993718 406.71991784 -241.96875 410.46875 C-247.81128154 415.45421597 -253.10647314 421.03963097 -258.5 426.5 C-270.85117265 439.00424118 -270.85117265 439.00424118 -277.17138672 444.38964844 C-280.55944703 447.37331276 -283.66025726 450.64657482 -286.8125 453.875 C-292.91935372 460.04112986 -299.05036185 465.78039907 -306 471 C-306.79156494 471.59820557 -306.79156494 471.59820557 -307.59912109 472.20849609 C-317.95870554 479.98789001 -328.6536375 486.65531002 -340.51171875 491.9296875 C-353.86214396 497.87207243 -365.74909394 503.94724195 -377.02148438 513.40039062 C-380.52210758 516.2306082 -384.23582754 518.75473026 -387.9375 521.3125 C-394.15351853 525.65306815 -400.21375143 530.09166501 -406 535 C-406.85078125 535.71671875 -407.7015625 536.4334375 -408.578125 537.171875 C-419.26170814 546.44804 -427.07341486 556.58992952 -429 571 C-429.83960783 583.17431354 -425.78470346 593.31816261 -418.546875 602.9296875 C-412.32047494 610.00514211 -401.37260632 615.49906059 -391.96875 616.23828125 C-378.85097049 616.51895446 -368.03807647 613.32358078 -358.2421875 604.3984375 C-351.13716511 596.89685572 -345.8830002 587.26257064 -340.93359375 578.2421875 C-337.70756989 572.83289497 -333.25294897 568.37264178 -327.125 566.4375 C-321.52175014 565.4577569 -316.1921904 566.47244877 -311.08984375 568.9140625 C-298.15016792 578.05141901 -292.64020707 602.70441255 -288 617 C-287.34 617 -286.68 617 -286 617 C-285.96559814 616.04971924 -285.93119629 615.09943848 -285.89575195 614.12036133 C-284.52890067 578.21647895 -284.52890067 578.21647895 -279 561 C-278.78359863 560.30003906 -278.56719727 559.60007812 -278.34423828 558.87890625 C-272.15482195 539.28757498 -260.8016489 521.07015956 -246.7578125 506.16796875 C-246.15665619 505.52730469 -245.55549988 504.88664062 -244.93612671 504.2265625 C-238.0454986 496.92593878 -230.96520553 489.81448483 -223.85693359 482.7265625 C-221.60265829 480.47771206 -219.35386624 478.22347552 -217.10546875 475.96875 C-215.6461543 474.51009548 -214.18653015 473.05175073 -212.7265625 471.59375 C-212.06806305 470.93322632 -211.4095636 470.27270264 -210.73110962 469.59216309 C-206.89303975 465.77314811 -202.93678194 462.15724648 -198.84017944 458.61779785 C-196.35038442 456.42888902 -194.01486796 454.10994388 -191.6875 451.75 C-191.00046997 451.05729004 -191.00046997 451.05729004 -190.29956055 450.35058594 C-188.86383825 448.90287278 -187.43147568 447.45191143 -186 446 C-175.49343015 435.34343833 -175.49343015 435.34343833 -171.0625 431.5625 C-165.39174988 426.71175652 -160.23878052 421.30669064 -155 416 C-149.1656466 410.09001609 -143.36925168 404.21913935 -137.046875 398.82421875 C-132.49475988 394.76727645 -128.27980461 390.34090312 -124 386 C-118.47116597 380.39223632 -112.94555593 374.85694194 -106.95703125 369.734375 C-103.12743832 366.34048426 -99.586062 362.64725759 -96 359 C-87.57678541 350.43304454 -87.57678541 350.43304454 -83.125 346.625 C-77.79722774 342.04628087 -72.92827203 336.99862805 -68 332 C-57.49270807 321.34270594 -57.49270807 321.34270594 -53.09375 317.59375 C-47.23435191 312.58163758 -41.91474114 306.98184622 -36.5 301.5 C-24.39801899 289.2480387 -24.39801899 289.2480387 -20.03125 285.53125 C-14.00641187 280.39665851 -8.55997688 274.62598 -3 269 C9.66223358 256.18745161 9.66223358 256.18745161 15.89453125 250.8828125 C20.98440502 246.33119997 25.70273763 241.35671502 30.5 236.5 C43.05301081 223.79141928 43.05301081 223.79141928 49.39013672 218.39160156 C51.48522504 216.58056071 53.39968363 214.62598225 55.3125 212.625 C71.09731911 196.7052679 89.98092487 185.37534662 110.625 177 C119.32775274 173.4565482 127.13579244 169.11736891 135 164 C135.60763184 163.61086426 136.21526367 163.22172852 136.84130859 162.82080078 C169.16847134 142.33597761 169.16847134 142.33597761 187.19140625 109.75 C189.39575661 99.52692587 187.35713265 89.55667344 182.0625 80.5625 C181.05945936 79.02987343 180.04101092 77.50709356 179 76 C178.13375 74.6696875 178.13375 74.6696875 177.25 73.3125 C168.94586959 64.7776993 158.42853599 60.03825999 146.5 59.5 C134.59999835 60.01965073 122.64169068 64.8112655 114.5390625 73.6015625 C110.85302423 77.92990262 108.27676657 82.55537281 105.75 87.625 C105.32976563 88.44484375 104.90953125 89.2646875 104.4765625 90.109375 C102.73908593 93.50783546 101.03864985 96.92019178 99.375 100.35546875 C96.72130633 105.45930573 93.63049567 109.06397471 88.625 111.9375 C82.9217436 113.60914412 78.3681272 113.83271398 72.875 111.625 C64.04247896 106.49226406 61.0978474 94.5766061 58 85.5 C57.57283691 84.27635742 57.14567383 83.05271484 56.70556641 81.79199219 C53.37891709 72.22583163 50.13391365 62.6310517 47 53 C46.67 53 46.34 53 46 53 Z M118.5625 176 C117.31530823 176.66170084 116.06655209 177.32045986 114.81640625 177.9765625 C114.19137207 178.3159082 113.56633789 178.65525391 112.92236328 179.00488281 C110.34648721 180.33829288 107.6964799 181.43494727 105.01660156 182.5402832 C88.96239439 189.18548106 73.59938583 198.71828695 61.58203125 211.37890625 C59.92536642 213.07647638 58.18487498 214.59241435 56.375 216.125 C51.99159052 219.89439103 47.95702578 223.98528687 43.91943359 228.11767578 C41.11458194 230.96772492 38.25502559 233.67785708 35.21875 236.28125 C30.22262773 240.59847336 25.63136002 245.29846786 21 250 C11.5124201 259.63133111 11.5124201 259.63133111 7.1875 263.3125 C1.12096791 268.5141249 -4.3868722 274.32023812 -10 280 C-22.63402461 292.78400456 -22.63402461 292.78400456 -26.96875 296.46875 C-33.17433586 301.75065327 -38.77500977 307.70979426 -44.5 313.5 C-57.8686377 327.02092487 -57.8686377 327.02092487 -64.06835938 332.29101562 C-68.24284237 335.98431453 -72.09023121 340.03099229 -76 344 C-81.1918808 349.27054566 -86.39082714 354.41429857 -92.0078125 359.23046875 C-95.84622553 362.63988268 -99.40203192 366.34063314 -103 370 C-111.42321459 378.56695546 -111.42321459 378.56695546 -115.875 382.375 C-121.20277226 386.95371913 -126.07172797 392.00137195 -131 397 C-136.48816911 402.56651823 -141.9737588 408.05596476 -147.91796875 413.140625 C-152.47862626 417.21355741 -156.70826129 421.64699242 -161 426 C-162.8927387 427.91975944 -164.78906758 429.83587254 -166.6875 431.75 C-167.51636719 432.59046875 -168.34523438 433.4309375 -169.19921875 434.296875 C-171.37226779 436.39415524 -173.56598094 438.37871552 -175.84960938 440.34960938 C-179.99252407 443.9438678 -183.8663194 447.75504547 -187.71875 451.65625 C-188.42092651 452.36221313 -189.12310303 453.06817627 -189.84655762 453.79553223 C-192.06684603 456.02791358 -194.28383955 458.26352111 -196.5 460.5 C-199.42409479 463.45090378 -202.35163057 466.39833203 -205.28125 469.34375 C-205.936698 470.00749634 -206.592146 470.67124268 -207.26745605 471.35510254 C-211.13520825 475.242998 -215.11674444 478.9323996 -219.27684021 482.50636292 C-225.02363732 487.48769392 -230.13847359 493.08662347 -235.0703125 498.859375 C-237.35893932 501.3981756 -239.79517348 503.74666949 -242.25 506.125 C-260.87363417 524.45984591 -274.66901441 548.34946062 -280 574 C-280.22212158 574.9890332 -280.22212158 574.9890332 -280.44873047 575.99804688 C-285.47294506 599.03696416 -287.52510693 628.80800084 -276 650 C-275.27025972 651.44241828 -274.54110196 652.8851314 -273.8125 654.328125 C-265.91850974 669.55200757 -265.91850974 669.55200757 -253 680 C-246.35352003 681.85267734 -241.56500681 680.95569119 -235.421875 678.0078125 C-227.71971913 671.62247682 -225.11332322 662.3463005 -222.24700928 653.13104248 C-221.08925477 649.42096318 -219.87808124 645.72842738 -218.66796875 642.03515625 C-218.43458801 641.32089478 -218.20120728 640.6066333 -217.96075439 639.87072754 C-211.90852413 621.47112888 -202.72267834 605.88688869 -190.55810547 590.94091797 C-188.22466262 588.03416921 -185.96436178 585.07232938 -183.69433594 582.1159668 C-178.72199621 575.6496565 -173.72782509 569.30374682 -168.16015625 563.3359375 C-166.37632515 561.40694835 -164.66836367 559.44474914 -162.9609375 557.44921875 C-158.5562715 552.40021102 -153.82975512 547.67950151 -149.0847168 542.9543457 C-147.56508332 541.4400742 -146.05087483 539.9205257 -144.53710938 538.40039062 C-143.54719541 537.41113761 -142.5569712 536.42219492 -141.56640625 535.43359375 C-140.68927979 534.55759521 -139.81215332 533.68159668 -138.90844727 532.77905273 C-136.79372053 530.71503087 -134.59768685 528.77945137 -132.35327148 526.85766602 C-127.45056759 522.60064593 -122.89357143 518.00666039 -118.32408142 513.39924622 C-116.74426867 511.80646509 -115.16117414 510.21700843 -113.57727051 508.6282959 C-110.21533139 505.25502687 -106.85736181 501.87782398 -103.5 498.5 C-99.60402651 494.58028165 -95.70636462 490.66227258 -91.8044281 486.74848938 C-90.25818445 485.19584762 -88.7150262 483.64018597 -87.17199707 482.08435059 C-82.54009717 477.42861943 -77.854178 472.912923 -72.8651123 468.64025879 C-69.51799339 465.6966606 -66.41187296 462.51400841 -63.28125 459.34375 C-62.57907349 458.63778687 -61.87689697 457.93182373 -61.15344238 457.20446777 C-58.93315397 454.97208642 -56.71616045 452.73647889 -54.5 450.5 C-51.57590521 447.54909622 -48.64836943 444.60166797 -45.71875 441.65625 C-45.063302 440.99250366 -44.407854 440.32875732 -43.73254395 439.64489746 C-39.89826313 435.7906477 -35.94243871 432.15392599 -31.82702637 428.60217285 C-29.41684788 426.48861685 -27.15588964 424.25155386 -24.90625 421.96875 C-24.02066406 421.07542969 -23.13507813 420.18210937 -22.22265625 419.26171875 C-21.32417969 418.35035156 -20.42570312 417.43898438 -19.5 416.5 C-14.1559249 411.07925237 -8.81934589 405.76647975 -3.03710938 400.81445312 C1.16307206 397.07335193 5.05428894 393.00549456 9 389 C14.18179994 383.73968794 19.37060882 378.60749253 24.9765625 373.80078125 C28.99813052 370.22174099 32.72516986 366.33542131 36.5 362.5 C45.45495897 353.40130172 45.45495897 353.40130172 49.875 349.625 C55.38293826 344.89684961 60.40567123 339.66354967 65.5 334.5 C71.17253803 328.75038445 76.82096601 323.06129263 82.96679688 317.81054688 C87.34119903 313.91518588 91.38942462 309.66955064 95.5 305.5 C105.51888524 295.33737179 105.51888524 295.33737179 109.84375 291.65625 C115.9018919 286.46793231 121.39748582 280.66902226 127 275 C129.26778857 272.70529026 131.53909708 270.41414624 133.8125 268.125 C134.31483154 267.61437012 134.81716309 267.10374023 135.3347168 266.57763672 C138.05289505 263.84128705 140.83960874 261.24451346 143.76318359 258.72802734 C148.71261841 254.44063287 153.33669083 249.84403805 157.9765625 245.2265625 C158.90544281 244.30338226 159.83432312 243.38020203 160.79135132 242.42904663 C162.74464299 240.48617672 164.69566436 238.54105661 166.64550781 236.59472656 C169.12421557 234.1215119 171.61208156 231.65772916 174.10219765 229.19600868 C176.50446216 226.81700899 178.89598572 224.42730347 181.2890625 222.0390625 C182.61582504 220.73082016 182.61582504 220.73082016 183.96939087 219.39614868 C193.46642808 210.10598657 193.46642808 210.10598657 198 198 C196.58864756 189.91679964 193.24147181 184.84815413 187.171875 179.39453125 C181.39171699 175.6831708 175.63935815 174.55492936 168.87109375 174.5234375 C167.74284935 174.50006821 167.74284935 174.50006821 166.59181213 174.47622681 C164.20705259 174.42918709 161.82257107 174.40118027 159.4375 174.375 C157.08651341 174.33810274 154.73565237 174.29707981 152.38478088 174.253479 C150.83774988 174.22518677 149.29065424 174.20022731 147.74351501 174.1786499 C142.73195826 174.09324785 137.80386417 173.74402783 132.8125 173.2890625 C126.97137935 172.86863598 123.66346456 173.15864639 118.5625 176 Z M128 286 C127.20078125 286.43344727 126.4015625 286.86689453 125.578125 287.31347656 C113.14600445 294.14245583 102.89857573 301.86426163 93 312 C89.48270277 315.59864554 85.94317585 319.09396938 82.125 322.375 C77.51491535 326.35441796 73.26764344 330.65952988 69 335 C60.5776494 343.56607672 60.5776494 343.56607672 56.0625 347.4375 C51.11075644 351.69305783 46.57934943 356.35126648 42 361 C36.81820006 366.26031206 31.62939118 371.39250747 26.0234375 376.19921875 C22.00186948 379.77825901 18.27483014 383.66457869 14.5 387.5 C9.49079531 392.58960926 4.45977219 397.53004601 -0.95898438 402.18164062 C-4.98496894 405.76842688 -8.71921498 409.65852822 -12.5 413.5 C-14.11204413 415.13791964 -15.72659861 416.77337266 -17.34375 418.40625 C-18.04693359 419.12103516 -18.75011719 419.83582031 -19.47460938 420.57226562 C-21.52774976 422.54601156 -23.61191396 424.40989428 -25.76757812 426.26757812 C-30.16992791 430.09210828 -34.27661473 434.16694896 -38.375 438.3125 C-39.14376465 439.08505127 -39.9125293 439.85760254 -40.70458984 440.65356445 C-43.13885765 443.09994182 -45.56984106 445.5495414 -48 448 C-51.20536178 451.23213688 -54.41414073 454.46082535 -57.625 457.6875 C-58.706604 458.78155151 -58.706604 458.78155151 -59.81005859 459.89770508 C-63.04773143 463.15078109 -66.30683911 466.31066087 -69.79492188 469.29492188 C-74.79125141 473.60330231 -79.40306787 478.2909742 -84.04631042 482.97114563 C-85.69333883 484.63113059 -87.34363952 486.28780235 -88.99475098 487.94372559 C-92.49934639 491.45965651 -95.99997555 494.97951953 -99.5 498.5 C-103.56119008 502.58492585 -107.62406294 506.66814893 -111.69120789 510.74714661 C-113.30392583 512.36626771 -114.91356218 513.98840784 -116.52307129 515.61071777 C-121.28184565 520.3930265 -126.08513662 525.0560415 -131.21517944 529.44448853 C-134.15839061 532.00956361 -136.90567837 534.76271377 -139.66015625 537.52734375 C-140.25372421 538.11995499 -140.84729218 538.71256622 -141.45884705 539.32313538 C-142.70108708 540.56470122 -143.94209068 541.80750536 -145.18188477 543.05151367 C-147.05829475 544.93328274 -148.93998969 546.80964738 -150.82226562 548.68554688 C-156.76285399 554.62293889 -162.56472063 560.59057687 -168 567 C-169.33185038 568.43887407 -170.66487439 569.87666448 -172 571.3125 C-181.91674105 582.5360984 -186.64476555 593.99522245 -188.375 608.75 C-188.47208252 609.54212891 -188.56916504 610.33425781 -188.66918945 611.15039062 C-189.33163206 617.89474768 -188.46277338 623.23117897 -185.25 629.3125 C-182.38018645 632.74033285 -179.5168377 634.58054895 -175.02754354 635.32872558 C-172.77254478 635.51801234 -170.53174965 635.61611079 -168.26971436 635.67941284 C-167.43554072 635.71251678 -166.60136709 635.74562073 -165.74191546 635.77972782 C-157.05777544 636.09629684 -148.37340752 636.14107207 -139.68457031 636.12939453 C-137.94570886 636.13075473 -136.2068477 636.13253809 -134.46798706 636.13470459 C-129.80655217 636.13920684 -125.14513978 636.13751912 -120.48370457 636.1343255 C-115.56178802 636.13176255 -110.63987318 636.13415041 -105.71795654 636.13571167 C-97.45389466 636.1375227 -89.18984176 636.13515592 -80.92578125 636.13037109 C-71.43336491 636.12493778 -61.94097009 636.1266887 -52.44855428 636.1321975 C-44.23811132 636.13676787 -36.02767476 636.13735994 -27.81723094 636.13475883 C-22.9402562 636.13321654 -18.0632915 636.13294485 -13.18631744 636.13629532 C41.98872984 636.16887876 90.79165103 633.74430149 132.43847656 592.578125 C161.60418709 563.23101061 173.1406647 524.25100977 173.16113281 483.85058594 C173.16576757 481.71256425 173.1707931 479.57454337 173.17617798 477.43652344 C173.18923191 471.65589774 173.19573199 465.87528361 173.20018864 460.0946455 C173.20312787 456.48084293 173.20723404 452.86704348 173.21169281 449.25324249 C173.22534296 437.9386286 173.2350244 426.62402187 173.2388947 415.30940032 C173.24338369 402.2601581 173.26098091 389.21102018 173.2898953 376.16180968 C173.31149831 366.06134761 173.32159808 355.96091494 173.32293582 345.86043 C173.32398389 339.83244698 173.3298936 333.80456236 173.34775543 327.7766037 C173.3642144 322.11303045 173.36640216 316.44962988 173.35761642 310.78604126 C173.35684516 308.70876859 173.36120047 306.63148671 173.37107468 304.55423737 C173.38376957 301.71724689 173.37793088 298.88087049 173.36749268 296.04388428 C173.37554908 295.22355076 173.38360548 294.40321723 173.39190602 293.55802512 C173.33847116 287.34245535 172.00450633 282.8525667 168.375 277.6875 C155.79118962 268.74637157 139.6137532 279.64177362 128 286 Z M-191 596 C-190 598 -190 598 -190 598 Z " fill="#000000" transform="translate(445,1)"/>
<path d="M0 0 C4.6543725 3.12116744 6.92620502 6.69051255 9 11.875 C10.45294844 19.38190028 11.1649694 27.13579115 7.140625 33.9375 C2.6409384 39.80226007 -2.92676565 44.24227528 -10.25 45.75 C-17.50176553 46.70417968 -23.99412755 45.61433289 -30.25 41.75 C-31.60684079 40.08444429 -32.91763684 38.38070018 -34.18920898 36.64916992 C-37.85805925 32.48156771 -40.13876733 31.02827916 -45.69555664 30.59887695 C-48.18418525 30.59382427 -50.67332859 30.64348629 -53.16015625 30.73828125 C-54.51884693 30.75405849 -55.87759546 30.76539343 -57.23635864 30.77259827 C-60.85181625 30.80416288 -64.46320205 30.89709253 -68.07714462 31.00304413 C-71.81888546 31.10256677 -75.56128048 31.14613977 -79.30395508 31.19580078 C-85.94329859 31.29193998 -92.58046224 31.4359325 -99.21833134 31.60430908 C-105.47065943 31.76107225 -111.7229413 31.8559866 -117.9765625 31.94140625 C-121.46365627 31.99702412 -124.95059598 32.05857822 -128.4375 32.125 C-129.60226364 32.14670761 -129.60226364 32.14670761 -130.79055786 32.16885376 C-150.16807413 32.37152629 -150.16807413 32.37152629 -168.5 37.875 C-169.16273926 38.18211914 -169.82547852 38.48923828 -170.50830078 38.80566406 C-189.40830572 47.88242922 -201.22355047 63.6440484 -208.98828125 82.68359375 C-212.58224722 93.26822886 -212.66810855 104.44078828 -212.875 115.5 C-212.90003098 116.72592865 -212.90003098 116.72592865 -212.92556763 117.97662354 C-213.04025654 123.73948507 -213.12419506 129.50250953 -213.20062256 135.26599121 C-213.24491727 138.39136919 -213.29608703 141.51656427 -213.34981537 144.6417923 C-213.47235359 151.79979178 -213.56782825 158.95748976 -213.62683868 166.11631012 C-213.65684009 169.71884125 -213.69637161 173.32062691 -213.76031494 176.92272949 C-213.83182921 181.00855513 -213.85327854 185.09327336 -213.87109375 189.1796875 C-213.89887405 190.40116486 -213.92665436 191.62264221 -213.95527649 192.88113403 C-213.93830977 200.06116064 -212.90715349 204.64552436 -208.73597717 210.55130005 C-205.45447261 215.40672048 -204.59290666 219.95465221 -205.25 225.75 C-206.65352754 232.78153402 -210.88378139 238.14235679 -216.25 242.75 C-221.77550321 245.84036993 -228.01777804 246.58477468 -234.25 245.75 C-241.0577048 243.55768829 -246.24256397 240.11241218 -249.5625 233.6875 C-251.97881868 228.53880407 -253.02005434 223.44589339 -252.25 217.75 C-251.62363475 216.36674119 -250.95824387 215.00084722 -250.26635742 213.64916992 C-247.02006446 205.76235377 -247.66529848 197.37467322 -247.67578125 188.98828125 C-247.6633005 187.15193878 -247.64895661 185.31560814 -247.63285828 183.47929382 C-247.5949574 178.65324449 -247.57968067 173.82739918 -247.57006836 169.0012207 C-247.55033888 161.34045626 -247.49403366 153.67979907 -247.44360542 146.01918602 C-247.43174481 144.16870765 -247.42061712 142.31822443 -247.41023064 140.4677372 C-247.15180311 94.76053929 -242.78843959 58.57798007 -209.25 24.75 C-186.50863742 2.41545965 -155.7528 -1.51254678 -125.58203125 -1.62890625 C-123.29342469 -1.64512481 -121.00482479 -1.66230917 -118.7162323 -1.68040466 C-112.71824269 -1.72582881 -106.7202433 -1.7607469 -100.72216797 -1.79260254 C-91.14358519 -1.84468089 -81.56510317 -1.91051395 -71.98663902 -1.98081779 C-68.6752495 -2.00327409 -65.36387172 -2.01978916 -62.05244446 -2.03553772 C-52.53940908 -2.09128851 -43.04393028 -2.22119383 -33.54174805 -2.70288086 C-32.38527252 -2.76033021 -32.38527252 -2.76033021 -31.20543385 -2.81894016 C-7.26105981 -4.18183259 -7.26105981 -4.18183259 0 0 Z M-20.94718933 -0.75750732 C-24.64971545 -0.18858003 -28.29549599 -0.02693727 -32.0324707 0.05761719 C-33.17014798 0.08778049 -33.17014798 0.08778049 -34.33080864 0.11855316 C-36.84153667 0.18303077 -39.3523617 0.24037915 -41.86328125 0.296875 C-42.73804926 0.31790031 -43.61281727 0.33892563 -44.5140934 0.36058807 C-57.50264301 0.67073803 -70.48838598 0.8272047 -83.48037338 0.87928772 C-86.24068411 0.89066711 -89.00096763 0.90481621 -91.76126099 0.9197998 C-93.61102285 0.92962488 -95.46078481 0.93943119 -97.31054688 0.94921875 C-98.22510084 0.95412575 -99.13965481 0.95903275 -100.08192253 0.96408844 C-104.76129566 0.9875909 -109.44043725 1.00199328 -114.11987305 1.00048828 C-152.25238274 1.00271564 -183.59041367 5.17442479 -212.25 32.75 C-232.59126308 53.38615691 -243.06209542 80.69574764 -243.56640625 109.46484375 C-243.5873233 110.49409973 -243.60824036 111.52335571 -243.62979126 112.58380127 C-243.69600634 115.95162543 -243.75502749 119.3195159 -243.8125 122.6875 C-243.83301422 123.83997223 -243.85352844 124.99244446 -243.87466431 126.17984009 C-244.16940406 142.99043434 -244.37405583 159.80184093 -244.42623901 176.61502075 C-244.43373893 178.82782272 -244.44441383 181.04061623 -244.45828247 183.25338745 C-244.47592876 186.32916107 -244.48030807 189.40465099 -244.48046875 192.48046875 C-244.48760895 193.3956427 -244.49474915 194.31081665 -244.50210571 195.25372314 C-244.7229552 199.98655713 -244.7229552 199.98655713 -242.25 203.75 C-241.363125 203.255 -240.47625 202.76 -239.5625 202.25 C-232.67246912 199.26291095 -224.42001467 200.2355715 -217.25 201.75 C-217.2345388 200.70599533 -217.2345388 200.70599533 -217.21876526 199.64089966 C-216.9785463 183.4754511 -216.72571764 167.31027562 -216.45410156 151.14532471 C-216.3289554 143.67764541 -216.21220653 136.20994355 -216.10966492 128.74191284 C-216.05486463 124.94184654 -215.98890294 121.14204288 -215.91915894 117.34222412 C-215.89017842 115.64100561 -215.86587327 113.9396997 -215.84671021 112.23834229 C-215.54428743 86.09995139 -208.41410787 66.29646665 -189.52758789 47.60961914 C-184.82873848 43.11154845 -180.18204622 39.50416431 -174.25 36.75 C-173.33734375 36.29238281 -172.4246875 35.83476563 -171.484375 35.36328125 C-165.13586369 32.52272939 -159.1779856 31.26998477 -152.30078125 30.6484375 C-151.4046814 30.56598785 -150.50858154 30.48353821 -149.58532715 30.39859009 C-135.8426845 29.25806163 -122.03180072 29.26412389 -108.25 29.125 C-106.78174784 29.10954482 -105.3134963 29.09403134 -103.84524536 29.07846069 C-91.79591132 28.95192079 -91.79591132 28.95192079 -86.30726624 28.90184021 C-79.13247127 28.83247964 -71.96479398 28.70708737 -64.79403687 28.44158936 C-61.35419175 28.31508847 -57.9139393 28.22245768 -54.47290039 28.13531494 C-52.97156945 28.08748117 -51.4706734 28.02221354 -49.97094727 27.93792725 C-39.01741713 27.32922303 -39.01741713 27.32922303 -34.55126953 30.91943359 C-32.19140625 33.60546875 -32.19140625 33.60546875 -30.27954102 36.29370117 C-26.3078842 41.10049045 -21.0236989 42.47806873 -15.0625 43.0625 C-8.06461799 42.48890311 -3.04488246 40.01713684 1.6875 34.8125 C5.74256687 29.7061195 7.24987674 25.67643328 7.0546875 19.1484375 C6.11812179 11.77598434 2.54802055 6.70627529 -3.16796875 2.125 C-8.68094207 -1.51583791 -14.59198644 -1.91793416 -20.94718933 -0.75750732 Z M-244.73046875 209.07421875 C-249.07810697 213.9089873 -248.91907893 219.17024341 -248.66015625 225.4375 C-247.88659004 231.68496806 -245.37591 235.02806142 -240.625 239.125 C-236.03711587 242.29140611 -231.78799035 243.24016374 -226.25 242.75 C-219.05687005 241.04574536 -214.38464207 236.7427699 -210.25 230.75 C-208.39082988 225.17248964 -208.16313435 219.45024061 -210.37890625 213.9453125 C-213.20203045 208.97720359 -215.93625967 205.19432055 -221.25 202.75 C-230.49059297 200.66341449 -237.62233127 202.71628048 -244.73046875 209.07421875 Z " fill="#000000" transform="translate(307.25,75.25)"/>
<path d="M0 0 C5.29976405 4.05745377 9.43703618 8.61964923 10.6015625 15.33203125 C10.67246094 16.01136719 10.74335937 16.69070313 10.81640625 17.390625 C10.89761719 18.10089844 10.97882813 18.81117188 11.0625 19.54296875 C11.31663261 23.92483101 10.67840169 27.03012515 8.82510376 31.00695801 C6.55734415 36.49754331 6.25136314 41.26654626 6.30224609 47.15429688 C6.295121 48.18022949 6.28799591 49.20616211 6.28065491 50.26318359 C6.26148143 53.62878078 6.26963775 56.99374182 6.27734375 60.359375 C6.2674222 62.72335717 6.25547545 65.08733163 6.24160767 67.45129395 C6.20930957 73.66515388 6.19886182 79.87883785 6.19476318 86.09277344 C6.18599956 96.00745748 6.15004002 105.92199709 6.10258865 115.83656311 C6.09016133 119.27159226 6.09074853 122.7064328 6.09286499 126.14147949 C6.06496411 141.26297372 6.02071133 156.88549658 1.69140625 171.515625 C1.48112793 172.246604 1.27084961 172.97758301 1.05419922 173.73071289 C-1.39661945 181.76645366 -5.06881852 189.09272177 -9.18359375 196.390625 C-9.72757813 197.37546875 -10.2715625 198.3603125 -10.83203125 199.375 C-25.42008854 223.99679426 -50.75168717 239.84439445 -77.87109375 247.140625 C-79.047323 247.45725098 -79.047323 247.45725098 -80.24731445 247.78027344 C-81.01390381 247.9765332 -81.78049316 248.17279297 -82.5703125 248.375 C-83.24280029 248.54741211 -83.91528809 248.71982422 -84.6081543 248.89746094 C-92.30918473 250.37211081 -99.93003813 250.53643743 -107.74267578 250.5324707 C-109.42490234 250.53768234 -109.42490234 250.53768234 -111.14111328 250.54299927 C-113.56204871 250.55031774 -115.98299068 250.5556838 -118.40393448 250.55928993 C-122.23759576 250.56649304 -126.07113183 250.58218566 -129.90475464 250.60063171 C-131.20910902 250.60689418 -132.5134634 250.61315664 -133.85734367 250.61960888 C-134.84625685 250.6243576 -134.84625685 250.6243576 -135.85514808 250.62920225 C-144.76653525 250.67114353 -153.67787595 250.70427914 -162.58935547 250.71655273 C-169.26532642 250.72584119 -175.94092915 250.75594049 -182.61678696 250.79787254 C-185.15644776 250.81017948 -187.69615402 250.81530438 -190.23584366 250.81307411 C-193.78534689 250.81072254 -197.33392286 250.83287518 -200.88330078 250.8605957 C-202.45136978 250.85069359 -202.45136978 250.85069359 -204.05111694 250.84059143 C-210.34000241 250.92120314 -213.99224448 251.8098814 -219.18359375 255.390625 C-225.68672583 257.78449448 -236.24034089 257.7550524 -242.62109375 254.953125 C-248.18319517 251.53310203 -252.68468498 246.26353347 -255.68359375 240.515625 C-257.07310057 231.83120735 -256.88338806 223.26831241 -252.08203125 215.640625 C-247.63676601 209.90479889 -242.23038965 206.77687993 -235.18359375 205.390625 C-227.55496697 204.61602597 -220.82845953 205.37957894 -214.18359375 209.390625 C-213.65048962 209.9365779 -213.11738548 210.4825308 -212.56812668 211.04502773 C-207.97698148 215.71741773 -204.74383148 217.19649055 -198.21386719 217.28378296 C-196.71436523 217.2507457 -196.71436523 217.2507457 -195.18457031 217.21704102 C-194.11027771 217.22127579 -193.03598511 217.22551056 -191.92913818 217.22987366 C-188.39319843 217.23517397 -184.85983312 217.19052903 -181.32421875 217.14453125 C-178.85333994 217.13654188 -176.38245054 217.13137237 -173.91156006 217.12889099 C-168.73656826 217.11666219 -163.56242622 217.08173685 -158.38769531 217.02856445 C-151.7795776 216.96085084 -145.1720615 216.93175949 -138.56363297 216.91757298 C-132.23374963 216.90237881 -125.9040125 216.86800352 -119.57421875 216.83203125 C-118.37815254 216.82675478 -117.18208633 216.82147831 -115.9497757 216.81604195 C-112.53306602 216.79741657 -109.11675606 216.76521008 -105.70019531 216.72875977 C-104.70862427 216.724953 -103.71705322 216.72114624 -102.69543457 216.71722412 C-79.95578083 216.40839938 -61.30364726 207.76282233 -45.43359375 191.609375 C-32.94506467 177.81995747 -28.06633993 159.6374367 -27.99072266 141.43164062 C-27.98254517 140.33824875 -27.97436768 139.24485687 -27.96594238 138.11833191 C-27.94118989 134.51118509 -27.92460316 130.9040772 -27.91015625 127.296875 C-27.90483257 126.0631868 -27.8995089 124.8294986 -27.8940239 123.5584259 C-27.87008903 117.70650211 -27.85083689 111.85459428 -27.83800185 106.00263548 C-27.82291851 99.2610729 -27.78776673 92.51999254 -27.73600066 85.77861452 C-27.69260332 79.92667896 -27.67665456 74.07490554 -27.67026901 68.2228241 C-27.66354765 65.73809575 -27.64830285 63.2533753 -27.6243782 60.76875305 C-27.59282521 57.29529774 -27.59267514 53.82316986 -27.60009766 50.34960938 C-27.58369232 49.32397385 -27.56728699 48.29833832 -27.55038452 47.24162292 C-27.59056195 42.6514004 -27.63190872 39.44684881 -30.64852905 35.83190918 C-31.4851004 35.0262854 -32.32167175 34.22066162 -33.18359375 33.390625 C-36.68971915 27.20404878 -37.23102412 20.68574829 -35.5625 13.84375 C-32.97554043 6.25533525 -28.49382422 1.64370002 -21.43359375 -2.046875 C-14.10385982 -3.3154828 -6.59906144 -3.91259593 0 0 Z M-28.12109375 7.41015625 C-31.71391353 12.34164685 -33.84189053 17.2217471 -33.18359375 23.390625 C-31.67408114 28.32434781 -29.33792969 32.33505022 -26.18359375 36.390625 C-25.29145205 39.23749466 -25.05646219 41.81449882 -25.04988098 44.78814697 C-25.04348351 46.09956161 -25.04348351 46.09956161 -25.03695679 47.43746948 C-25.03740997 48.38912994 -25.03786316 49.34079041 -25.03833008 50.32128906 C-25.03497147 51.33005096 -25.03161285 52.33881287 -25.02815247 53.37814331 C-25.01863837 56.72085803 -25.01669841 60.06352257 -25.015625 63.40625 C-25.01241021 65.73874939 -25.00904597 68.07124859 -25.00553894 70.40374756 C-24.99954475 75.30302395 -24.99769909 80.2022827 -24.99829102 85.1015625 C-24.99839208 91.34166251 -24.98479948 97.58164729 -24.96751881 103.82172012 C-24.95632346 108.64683538 -24.95437419 113.47192357 -24.95490074 118.29705048 C-24.95372966 120.59485009 -24.94935752 122.89265061 -24.94156837 125.19043732 C-24.85977522 151.83665282 -26.8518014 177.38051326 -46.23046875 197.6875 C-55.68234439 206.67261635 -66.97577251 212.17695767 -79.18359375 216.390625 C-79.81389716 216.64258039 -80.44420057 216.89453577 -81.09360409 217.15412617 C-87.42908562 219.55161533 -93.21865518 219.83209091 -99.94555664 219.82299805 C-101.65927963 219.83828552 -101.65927963 219.83828552 -103.40762329 219.85388184 C-107.15721611 219.88390478 -110.90655299 219.8932617 -114.65625 219.90234375 C-117.26656435 219.91919831 -119.87687062 219.93734959 -122.48716736 219.95674133 C-128.63859433 220.00026522 -134.78999508 220.02889847 -140.94152874 220.05206472 C-147.95014614 220.0791925 -154.95862781 220.12309901 -161.96714795 220.16835344 C-176.37255015 220.26099727 -190.77801032 220.33277033 -205.18359375 220.390625 C-205.20421875 221.64875 -205.22484375 222.906875 -205.24609375 224.203125 C-205.25769531 224.91082031 -205.26929688 225.61851562 -205.28125 226.34765625 C-205.26622592 228.59367961 -205.26622592 228.59367961 -204.18359375 231.390625 C-204.84359375 231.390625 -205.50359375 231.390625 -206.18359375 231.390625 C-206.27640625 229.905625 -206.27640625 229.905625 -206.37109375 228.390625 C-207.26045425 222.28862376 -210.71366833 217.89395782 -214.93359375 213.578125 C-220.97801037 209.50976766 -226.70748523 207.61920896 -233.98828125 208.82421875 C-241.16096452 210.67482208 -246.10564343 214.19771287 -250.18359375 220.390625 C-253.52783778 226.26135996 -253.87882384 231.87846062 -252.18359375 238.390625 C-249.09075872 245.31381726 -244.32254349 250.03320358 -237.19921875 252.8515625 C-230.31094272 254.69377586 -223.42241025 253.71889212 -217.18359375 250.390625 C-211.7767205 246.78604283 -208.71855156 242.38030408 -206.18359375 236.390625 C-206.18359375 235.400625 -206.18359375 234.410625 -206.18359375 233.390625 C-205.52359375 233.390625 -204.86359375 233.390625 -204.18359375 233.390625 C-204.46074219 234.13828125 -204.73789062 234.8859375 -205.0234375 235.65625 C-205.38566406 236.64109375 -205.74789062 237.6259375 -206.12109375 238.640625 C-206.48074219 239.61515625 -206.84039062 240.5896875 -207.2109375 241.59375 C-207.99872951 243.85904751 -208.6237419 246.06408113 -209.18359375 248.390625 C-195.26537779 248.43761286 -181.34717435 248.47261026 -167.428895 248.49424934 C-160.96453137 248.50464042 -154.50022142 248.51871325 -148.03588867 248.54150391 C-141.78536903 248.56340023 -135.53490069 248.57522869 -129.28434563 248.58037949 C-126.91200899 248.58404533 -124.53967482 248.59120281 -122.16736031 248.60208511 C-89.10018364 248.74759528 -56.70726265 243.89992649 -32.12109375 219.578125 C-31.13566471 218.52143052 -30.15566198 217.45962311 -29.18359375 216.390625 C-28.35859375 215.58625 -27.53359375 214.781875 -26.68359375 213.953125 C-25.85859375 213.1075 -25.03359375 212.261875 -24.18359375 211.390625 C-23.41789062 210.61912109 -23.41789062 210.61912109 -22.63671875 209.83203125 C5.90605694 179.39076819 4.0170429 136.45599673 3.7734375 97.6328125 C3.76315411 95.7979534 3.75289014 93.96309418 3.74264526 92.12823486 C3.69796284 84.58388333 3.64911723 77.03968012 3.56958008 69.49560547 C3.52089402 64.80787055 3.49203815 60.12036223 3.4758358 55.43240738 C3.4660246 53.67106625 3.44894869 51.90974824 3.42405128 50.14855576 C3.19543238 33.66848573 3.19543238 33.66848573 6.89897156 26.27420044 C8.44455283 23.10098392 8.37082406 20.8403358 7.81640625 17.390625 C5.29567958 10.13046754 1.64583082 5.07009629 -5.18359375 1.390625 C-13.78067719 -1.24581392 -21.88463877 0.90965781 -28.12109375 7.41015625 Z " fill="#000000" transform="translate(581.18359375,352.609375)"/>
<path d="M0 0 C7.669816 5.70337595 13.86282226 12.30169344 18 21 C18.31324219 21.65355469 18.62648438 22.30710937 18.94921875 22.98046875 C24.03180096 35.00511447 24.46153997 49.40230811 20.375 61.75 C14.74892919 75.32113138 5.41366136 85.76237147 -8 92 C-14.97059401 94.63609756 -21.38705043 95.5199541 -28.8125 95.4375 C-29.77373779 95.42992676 -30.73497559 95.42235352 -31.7253418 95.41455078 C-43.39733312 95.14528029 -52.70067772 92.26509553 -62 85 C-62.82371094 84.38640625 -63.64742188 83.7728125 -64.49609375 83.140625 C-73.11566021 75.77163527 -79.75024956 64.34032809 -81 53 C-82.06838491 36.27582694 -80.02729826 22.16484035 -69.15234375 8.71484375 C-51.16264857 -10.45692586 -22.16123498 -14.01866 0 0 Z M-69.875 16.375 C-77.16521656 26.17552699 -78.93472516 38.08554552 -78 50 C-74.87042005 65.18293359 -68.45776138 76.47504255 -55.8828125 85.5234375 C-44.55631626 92.57578421 -30.73283712 94.65545383 -17.875 91.75 C-4.39032184 88.01763372 6.32835609 79.76436848 14 68 C19.98265064 55.93065262 21.1037588 41.98103168 17.375 29 C11.84100508 13.58248433 2.41900154 5.03520515 -12 -2 C-34.10637688 -10.84255075 -55.40064947 -0.8460823 -69.875 16.375 Z " fill="#000000" transform="translate(513,459)"/>
<path d="M0 0 C14.06282875 0.30272234 26.70949374 5.45573887 36.875 15.125 C47.09760994 26.09197474 51.75746957 39.95446761 51.52734375 54.8359375 C50.72676141 67.52208849 46.76235474 77.72537682 38.375 87.25 C37.8284375 87.8790625 37.281875 88.508125 36.71875 89.15625 C27.82165993 98.72481857 15.8630968 103.82874624 2.86328125 104.59765625 C-12.24705931 105.07697296 -26.40984219 101.85853472 -37.75 91.25 C-48.00722876 80.30895599 -52.72802246 67.19312593 -53.9375 52.4375 C-53.4185965 36.64337481 -47.25403977 24.36184823 -36.09228516 13.58056641 C-25.85072184 4.29329185 -13.45154643 0.92769286 0 0 Z M-39.375 22 C-48.25367764 32.60909277 -50.52382701 45.69862486 -49.8203125 59.11816406 C-48.97648344 68.32855824 -45.24503369 76.05862187 -39.625 83.25 C-39.18542969 83.86359375 -38.74585938 84.4771875 -38.29296875 85.109375 C-31.27732907 94.24790276 -19.85022486 99.76245933 -8.6875 101.78125 C3.97924219 103.23264754 16.70934031 100.72239248 27 93 C28.47342365 91.76782353 29.93209089 90.5177734 31.375 89.25 C32.0659375 88.67636719 32.756875 88.10273438 33.46875 87.51171875 C42.43784035 79.45678568 47.60912142 67.58237234 48.5859375 55.6796875 C49.07973712 42.34709789 44.77422076 30.09578033 36.125 20 C26.38531544 9.76371968 13.87261444 3.70104812 -0.36328125 3.1171875 C-15.79543853 3.74556277 -28.89631307 10.93287709 -39.375 22 Z " fill="#000000" transform="translate(175.625,118.75)"/>
<path d="M0 0 C0 3 0 3 -1.42675781 4.79425049 C-2.09545898 5.45930603 -2.76416016 6.12436157 -3.453125 6.80957031 C-4.20811279 7.5675592 -4.96310059 8.3255481 -5.7409668 9.10650635 C-6.98293823 10.32995758 -6.98293823 10.32995758 -8.25 11.578125 C-9.09667236 12.42292419 -9.94334473 13.26772339 -10.81567383 14.13812256 C-12.61467564 15.93038824 -14.41727815 17.71904571 -16.22314453 19.50439453 C-18.96762656 22.21799088 -21.70155061 24.94185516 -24.43359375 27.66796875 C-26.18428005 29.40947341 -27.93556379 31.15037773 -29.6875 32.890625 C-30.90518066 34.10193085 -30.90518066 34.10193085 -32.14746094 35.33770752 C-36.42237506 39.55997981 -40.76766031 43.63951762 -45.33287048 47.54714966 C-47.52967985 49.46159914 -49.5472884 51.52183799 -51.5625 53.625 C-55.13934248 57.25773065 -58.74885602 60.19605397 -63 63 C-61.58519561 59.78904136 -59.88922166 57.64084055 -57.41162109 55.16870117 C-56.67680511 54.43080856 -55.94198914 53.69291595 -55.18490601 52.93266296 C-54.3891214 52.14406387 -53.59333679 51.35546478 -52.7734375 50.54296875 C-51.95179108 49.72178055 -51.13014465 48.90059235 -50.28359985 48.05451965 C-48.54250483 46.31644576 -46.79898001 44.58080301 -45.05322266 42.84741211 C-42.40086111 40.2131843 -39.75646643 37.57116626 -37.11328125 34.92773438 C-35.41713538 33.23650896 -33.72053502 31.54573921 -32.0234375 29.85546875 C-31.23979828 29.07294235 -30.45615906 28.29041595 -29.64877319 27.48417664 C-25.46574239 23.33655261 -21.20757428 19.34056094 -16.73031616 15.5113678 C-14.10106466 13.21481291 -11.69022853 10.74665 -9.25 8.25 C-6.30140048 5.23400392 -3.45786956 2.42374034 0 0 Z " fill="#000000" transform="translate(469,338)"/>
<path d="M0 0 C0 3 0 3 -1.984375 5.34082031 C-2.89703125 6.24413086 -3.8096875 7.14744141 -4.75 8.078125 C-5.24153564 8.56778748 -5.73307129 9.05744995 -6.23950195 9.56195068 C-7.28525324 10.60097091 -8.3346002 11.63638261 -9.38720703 12.66845703 C-10.97278003 14.22330745 -12.54784365 15.78816105 -14.12109375 17.35546875 C-18.2994 21.50090074 -22.47754863 25.62250502 -26.9609375 29.44140625 C-33.45845265 35.00710721 -39.32052836 41.29736412 -45.30566406 47.40161133 C-46.94149016 49.06779247 -48.58361243 50.72756598 -50.2265625 52.38671875 C-50.71734283 52.89095871 -51.20812317 53.39519867 -51.71377563 53.91471863 C-54.92119955 57.14499385 -58.16367858 59.60274272 -62 62 C-60.44064367 58.25938188 -58.12945322 55.88534364 -55.2734375 53.04296875 C-54.57367294 52.34389153 -54.57367294 52.34389153 -53.85977173 51.63069153 C-52.8719326 50.64586655 -51.88167105 49.66346619 -50.88916016 48.68334961 C-49.39566953 47.20791957 -47.9101425 45.7248426 -46.42578125 44.24023438 C-42.43497245 40.26474281 -38.44747267 36.31455127 -34.15234375 32.6640625 C-27.80820921 27.22634903 -22.05862846 21.12413182 -16.1875 15.1875 C-13.76721438 12.74060043 -11.34361194 10.29705603 -8.91796875 7.85546875 C-8.367957 7.29715866 -7.81794525 6.73884857 -7.25126648 6.16362 C-4.92608872 3.82351434 -2.75548019 1.83698679 0 0 Z " fill="#000000" transform="translate(315,245)"/>
<path d="M0 0 C0.495 0.99 0.495 0.99 1 2 C-3.70774063 7.59107526 -8.68532686 12.68043725 -14.0625 17.625 C-20.36030505 23.47469067 -26.52100755 29.42785982 -32.53344727 35.57080078 C-35.21256845 38.29173883 -37.85207558 40.82770349 -41 43 C-41.66 42.67 -42.32 42.34 -43 42 C-39.16216306 38.13723706 -35.32089514 34.27792917 -31.4765625 30.42163086 C-30.17225416 29.11232826 -28.86884892 27.80212531 -27.56640625 26.4909668 C-14.70087745 13.54157527 -14.70087745 13.54157527 -8.52539062 8.30053711 C-6.58612189 6.64713049 -4.78276106 4.88240191 -3 3.0625 C-2.4225 2.47597656 -1.845 1.88945312 -1.25 1.28515625 C-0.63125 0.64900391 -0.63125 0.64900391 0 0 Z " fill="#000000" transform="translate(454,336)"/>
<path d="M0 0 C0 3.61770393 -0.63458538 4.08448793 -3 6.6875 C-3.64453125 7.40035156 -4.2890625 8.11320313 -4.953125 8.84765625 C-6.83871124 10.83040056 -8.77725471 12.72969719 -10.75 14.625 C-17.22938577 20.99004367 -22.96767447 28.45151171 -28 36 C-28.66 36 -29.32 36 -30 36 C-24.9175194 21.86514101 -11.25233148 9.44640174 0 0 Z " fill="#000000" transform="translate(240,543)"/>
<path d="M0 0 C0.66 0.33 1.32 0.66 2 1 C-3.34984409 6.40046103 -8.70744053 11.7931391 -14.07055664 17.18041992 C-15.89495383 19.01488858 -17.71755382 20.85114636 -19.53833008 22.68920898 C-22.15238073 25.32745722 -24.77277949 27.95925114 -27.39453125 30.58984375 C-28.21025101 31.41588608 -29.02597076 32.24192841 -29.8664093 33.09300232 C-30.62697128 33.85371536 -31.38753326 34.61442841 -32.17114258 35.39819336 C-32.83954666 36.07103867 -33.50795074 36.74388397 -34.1966095 37.43711853 C-36 39 -36 39 -39 40 C-37.36312397 35.82741081 -34.30669032 33.03574927 -31.1796875 29.94921875 C-30.60219757 29.37218704 -30.02470764 28.79515533 -29.42971802 28.20063782 C-28.20648633 26.98042338 -26.98082895 25.76263649 -25.75292969 24.54711914 C-23.89728973 22.7095724 -22.04961463 20.86431462 -20.203125 19.01757812 C-14.76190212 13.59318263 -9.32558703 8.21340382 -3.45751953 3.24536133 C-2.25577715 2.21854594 -1.11770627 1.11770627 0 0 Z " fill="#000000" transform="translate(454,302)"/>
<path d="M0 0 C0 4.93650786 -3.67306464 7.5947129 -7 11 C-9.93956004 13.73955832 -12.94244897 16.39310842 -16 19 C-16 16 -16 16 -14.53125 14.19067383 C-13.8609375 13.53607178 -13.190625 12.88146973 -12.5 12.20703125 C-11.778125 11.49482422 -11.05625 10.78261719 -10.3125 10.04882812 C-9.549375 9.31083984 -8.78625 8.57285156 -8 7.8125 C-6.8553125 6.68811523 -6.8553125 6.68811523 -5.6875 5.54101562 C-3.79819161 3.68713177 -1.90224794 1.84058931 0 0 Z " fill="#000000" transform="translate(229,328)"/>
<path d="M0 0 C0 3 0 3 -2.5546875 5.91796875 C-3.65369246 7.01564319 -4.76084093 8.10521047 -5.875 9.1875 C-6.43058594 9.74630859 -6.98617188 10.30511719 -7.55859375 10.88085938 C-11.73305861 15 -11.73305861 15 -14 15 C-12.41948722 11.14750011 -9.94555446 8.71095984 -7 5.8125 C-6.113125 4.93207031 -5.22625 4.05164063 -4.3125 3.14453125 C-2 1 -2 1 0 0 Z " fill="#000000" transform="translate(413,342)"/>
<path d="M0 0 C0.33 0.99 0.66 1.98 1 3 C-0.62339805 4.70884005 -2.29319053 6.37446717 -4 8 C-4.66 8 -5.32 8 -6 8 C-4.55746343 4.63408134 -2.66735273 2.48952921 0 0 Z " fill="#000000" transform="translate(475,282)"/>
<path d="M0 0 C0.66 0.33 1.32 0.66 2 1 C0.38405168 3.04119788 -1.2856382 5.04072937 -3 7 C-3.66 7 -4.32 7 -5 7 C-3.70700306 4.11562221 -2.34058637 2.12780579 0 0 Z " fill="#000000" transform="translate(392,362)"/>
<path d="M0 0 C0 3 0 3 -2.5 5.6875 C-3.325 6.450625 -4.15 7.21375 -5 8 C-5.66 7.67 -6.32 7.34 -7 7 C-4.69 4.69 -2.38 2.38 0 0 Z " fill="#000000" transform="translate(267,307)"/>
<path d="M0 0 C0.66 0 1.32 0 2 0 C1.38722388 2.96175123 0.74627478 4.38058783 -1 7 C-1.66 7 -2.32 7 -3 7 C-1.125 2.25 -1.125 2.25 0 0 Z " fill="#000000" transform="translate(208,580)"/>
<path d="M0 0 C0.66 0 1.32 0 2 0 C0.95125002 2.62187494 0.35068687 3.79371361 -2.125 5.25 C-2.74375 5.4975 -3.3625 5.745 -4 6 C-2.84826645 3.53199953 -1.95216435 1.95216435 0 0 Z " fill="#000000" transform="translate(464,326)"/>
<path d="M0 0 C0.66 0.33 1.32 0.66 2 1 C0.35 2.98 -1.3 4.96 -3 7 C-3.99 6.67 -4.98 6.34 -6 6 C-4.02 4.02 -2.04 2.04 0 0 Z " fill="#000000" transform="translate(250,323)"/>
<path d="M0 0 C0 3 0 3 -1.3125 4.38671875 C-2.875 5.59114583 -4.4375 6.79557292 -6 8 C-4.55746343 4.63408134 -2.66735273 2.48952921 0 0 Z " fill="#000000" transform="translate(323,237)"/>
<path d="M0 0 C0.66 0.33 1.32 0.66 2 1 C0.35 2.65 -1.3 4.3 -3 6 C-3 3 -3 3 -1.5 1.3125 C-0.7575 0.6628125 -0.7575 0.6628125 0 0 Z " fill="#000000" transform="translate(330,230)"/>
<path d="M0 0 C1 3 1 3 0.0625 5.1875 C-0.4634375 6.0846875 -0.4634375 6.0846875 -1 7 C-1.66 7 -2.32 7 -3 7 C-1.125 1.125 -1.125 1.125 0 0 Z " fill="#000000" transform="translate(440,84)"/>
<path d="M0 0 C0.66 0.33 1.32 0.66 2 1 C0.35 2.65 -1.3 4.3 -3 6 C-3 3 -3 3 -1.5 1.3125 C-0.7575 0.6628125 -0.7575 0.6628125 0 0 Z " fill="#000000" transform="translate(348,213)"/>
<path d="M0 0 C0.66 0.33 1.32 0.66 2 1 C0.625 3 0.625 3 -1 5 C-1.66 5 -2.32 5 -3 5 C-1.125 1.125 -1.125 1.125 0 0 Z " fill="#000000" transform="translate(401,403)"/>
<path d="M0 0 C0.33 0.99 0.66 1.98 1 3 C0.34 3.66 -0.32 4.32 -1 5 C-1.99 4.67 -2.98 4.34 -4 4 C-2.68 2.68 -1.36 1.36 0 0 Z " fill="#000000" transform="translate(480,327)"/>
<path d="M0 0 C0.66 0.33 1.32 0.66 2 1 C0.515 3.475 0.515 3.475 -1 6 C-1.33 5.01 -1.66 4.02 -2 3 C-1.34 2.01 -0.68 1.02 0 0 Z " fill="#000000" transform="translate(197,602)"/>
<path d="M0 0 C0.66 0.33 1.32 0.66 2 1 C0.68 2.32 -0.64 3.64 -2 5 C-2 2 -2 2 0 0 Z " fill="#000000" transform="translate(341,220)"/>
<path d="M0 0 C0.66 0 1.32 0 2 0 C1.34 1.32 0.68 2.64 0 4 C-0.66 4 -1.32 4 -2 4 C-1.34 2.68 -0.68 1.36 0 0 Z " fill="#000000" transform="translate(313,262)"/>
<path d="M0 0 C0.33 1.32 0.66 2.64 1 4 C0.01 4.33 -0.98 4.66 -2 5 C-1.34 3.35 -0.68 1.7 0 0 Z " fill="#000000" transform="translate(270,84)"/>
<path d="M0 0 C0.33 1.32 0.66 2.64 1 4 C0.01 4.66 -0.98 5.32 -2 6 C-1.34 4.02 -0.68 2.04 0 0 Z " fill="#000000" transform="translate(460,45)"/>
<path d="M0 0 C0.33 0.66 0.66 1.32 1 2 C0.67 2.66 0.34 3.32 0 4 C-0.99 3.67 -1.98 3.34 -3 3 C-2.01 2.01 -1.02 1.02 0 0 Z " fill="#000000" transform="translate(274,300)"/>
<path d="M0 0 C0.66 0.33 1.32 0.66 2 1 C1.01 1.99 0.02 2.98 -1 4 C-0.67 2.68 -0.34 1.36 0 0 Z " fill="#000000" transform="translate(204,588)"/>
<path d="M0 0 C0.66 0.33 1.32 0.66 2 1 C1.67 1.66 1.34 2.32 1 3 C0.01 2.67 -0.98 2.34 -2 2 C-1.34 1.34 -0.68 0.68 0 0 Z " fill="#000000" transform="translate(304,271)"/>
<path d="M0 0 C0.66 0.33 1.32 0.66 2 1 C1.67 1.66 1.34 2.32 1 3 C0.34 3 -0.32 3 -1 3 C-0.67 2.01 -0.34 1.02 0 0 Z " fill="#000000" transform="translate(191,616)"/>
<path d="M0 0 C0.99 0.33 1.98 0.66 3 1 C1.68 1.33 0.36 1.66 -1 2 C-0.67 1.34 -0.34 0.68 0 0 Z " fill="#000000" transform="translate(335,225)"/>
<path d="M0 0 C0.66 0.66 1.32 1.32 2 2 C1.34 2.66 0.68 3.32 0 4 C0 2.68 0 1.36 0 0 Z " fill="#000000" transform="translate(179,657)"/>
</svg>
